<?xml version="1.0" ?><!DOCTYPE svg  PUBLIC '-//W3C//DTD SVG 1.1//EN'  'http://www.w3.org/Graphics/SVG/1.1/DTD/svg11.dtd'><svg width="512px" height="512px" viewBox="0 0 512 512" style="enable-background:new 0 0 512 512;" version="1.1" xml:space="preserve" xmlns="http://www.w3.org/2000/svg" xmlns:xlink="http://www.w3.org/1999/xlink"><g id="_x35_24_x2C__truck_x2C__van__x2C__vehicle_x2C__education"><g><path d="M431,249.49V361H81V249.49c0-5.44,2.16-10.65,6-14.49l8-8c3.84-3.84,6-9.05,6-14.49V191v-40v-28.5    c0-45.01,36.49-81.5,81.5-81.5h147c45.01,0,81.5,36.49,81.5,81.5V151v40v21.51c0,5.44,2.16,10.65,6,14.49l8,8    C428.84,238.84,431,244.05,431,249.49z" style="fill:#FCD884;"/><path d="M91,258.49c0-5.44,2.16-10.65,6-14.49l8-8c3.84-3.84,6-9.05,6-14.49V200v-40v-28.5    c0-45.01,36.49-81.5,81.5-81.5h147c18.514,0,35.577,6.184,49.262,16.584C373.902,50.841,352.856,41,329.5,41h-147    c-45.01,0-81.5,36.49-81.5,81.5V151v40v21.51c0,5.44-2.16,10.65-6,14.49l-8,8c-3.84,3.84-6,9.05-6,14.49V361h10V258.49z" style="fill:#EABF6A;"/><path d="M401,401v40c0,16.57-13.43,30-30,30s-30-13.43-30-30v-40H401z" style="fill:#3E3E3F;"/><path d="M350.834,451.667v-40H401V401h-60v40c0,10.476,5.371,19.69,13.506,25.056    C352.166,461.784,350.834,456.882,350.834,451.667z" style="fill:#2D2D2D;"/><polygon points="441,361 441,401 401,401 341,401 181,401 121,401 71,401 71,361 81,361 431,361   " style="fill:#57606F;"/><polygon points="81,370.667 91,370.667 441,370.667 441,361 431,361 81,361 71,361 71,401 81,401   " style="fill:#414A56;"/><path d="M181,401v40c0,16.57-13.43,30-30,30s-30-13.43-30-30v-40H181z" style="fill:#3E3E3F;"/><path d="M131,450.666v-40h50V401h-60v40c0,10.99,5.912,20.594,14.725,25.819    C132.739,462.155,131,456.616,131,450.666z" style="fill:#2D2D2D;"/><path d="M151,281c11.05,0,20,8.95,20,20s-8.95,20-20,20s-20-8.95-20-20S139.95,281,151,281z" style="fill:#57606F;"/><path d="M135,311.834c0-11.05,8.95-20,20-20c6.518,0,12.288,3.129,15.938,7.951    C170.308,289.305,161.64,281,151,281c-11.05,0-20,8.95-20,20c0,4.531,1.523,8.696,4.062,12.049    C135.037,312.645,135,312.244,135,311.834z" style="fill:#414A56;"/><path d="M371,281c11.05,0,20,8.95,20,20s-8.95,20-20,20s-20-8.95-20-20S359.95,281,371,281z" style="fill:#57606F;"/><path d="M354.833,310.666c0-11.05,8.95-20,20-20c6.573,0,12.386,3.182,16.031,8.074    C389.741,288.757,381.285,281,371,281c-11.05,0-20,8.95-20,20c0,4.477,1.486,8.594,3.969,11.926    C354.886,312.183,354.833,311.431,354.833,310.666z" style="fill:#414A56;"/><polygon points="481,131 481,201 441,201 441,191 441,151 441,131   " style="fill:#FFD8A8;"/><polygon points="449,200.167 449,160.167 449,140.167 481,140.167 481,131 441,131 441,151 441,191     441,201 449,201   " style="fill:#EABD8C;"/><polygon points="71,191 71,201 31,201 31,131 71,131 71,151   " style="fill:#FFD8A8;"/><polygon points="39,140 71,140 71,131 31,131 31,201 39,201   " style="fill:#EABD8C;"/><polygon points="251,231 131,231 131,121 381,121 381,231 371,231   " style="fill:#E8F9F9;"/><polygon points="142.5,132.333 381,132.333 381,121 131,121 131,231 142.5,231   " style="fill:#CCE5E4;"/><path d="M431,366c-2.762,0-5-2.238-5-5V249.49c0-4.14-1.61-8.03-4.535-10.955l-8-8C408.651,225.722,406,219.32,406,212.51V122.5    c0-42.182-34.317-76.5-76.5-76.5h-147c-42.182,0-76.5,34.318-76.5,76.5v90.01c0,6.811-2.651,13.212-7.464,18.026l-8,8    C87.611,241.46,86,245.351,86,249.49V361c0,2.762-2.239,5-5,5s-5-2.238-5-5V249.49c0-6.811,2.651-13.212,7.464-18.026l8-8    C94.389,220.54,96,216.649,96,212.51V122.5C96,74.804,134.804,36,182.5,36h147c47.696,0,86.5,38.804,86.5,86.5v90.01    c0,4.14,1.61,8.03,4.535,10.955l8,8c4.813,4.813,7.465,11.215,7.465,18.026V361C436,363.762,433.762,366,431,366z"/><path d="M441,406h-40c-2.762,0-5-2.238-5-5s2.238-5,5-5h35v-30H76v30h45c2.761,0,5,2.238,5,5s-2.239,5-5,5H71    c-2.761,0-5-2.238-5-5v-40c0-2.762,2.239-5,5-5h370c2.762,0,5,2.238,5,5v40C446,403.762,443.762,406,441,406z"/><path d="M341,406H181c-2.761,0-5-2.238-5-5s2.239-5,5-5h160c2.762,0,5,2.238,5,5S343.762,406,341,406z"/><path d="M381,236H131c-2.761,0-5-2.239-5-5V121c0-2.761,2.239-5,5-5h250c2.762,0,5,2.239,5,5v110C386,233.761,383.762,236,381,236    z M136,226h240V126H136V226z"/><path d="M251,236c-2.761,0-5-2.239-5-5v-70c0-2.761,2.239-5,5-5s5,2.239,5,5v70C256,233.761,253.761,236,251,236z"/><path d="M151,326c-13.785,0-25-11.215-25-25s11.215-25,25-25s25,11.215,25,25S164.785,326,151,326z M151,286    c-8.271,0-15,6.729-15,15s6.729,15,15,15s15-6.729,15-15S159.271,286,151,286z"/><path d="M371,326c-13.785,0-25-11.215-25-25s11.215-25,25-25s25,11.215,25,25S384.785,326,371,326z M371,286    c-8.271,0-15,6.729-15,15s6.729,15,15,15s15-6.729,15-15S379.271,286,371,286z"/><path d="M151,476c-19.299,0-35-15.701-35-35v-40c0-2.762,2.239-5,5-5h60c2.761,0,5,2.238,5,5v40C186,460.299,170.299,476,151,476z     M126,406v35c0,13.785,11.215,25,25,25s25-11.215,25-25v-35H126z"/><path d="M371,476c-19.299,0-35-15.701-35-35v-40c0-2.762,2.238-5,5-5h60c2.762,0,5,2.238,5,5v40C406,460.299,390.299,476,371,476z     M346,406v35c0,13.785,11.215,25,25,25s25-11.215,25-25v-35H346z"/><path d="M441,156h-30c-2.762,0-5-2.239-5-5s2.238-5,5-5h30c2.762,0,5,2.239,5,5S443.762,156,441,156z"/><path d="M441,196h-30c-2.762,0-5-2.239-5-5s2.238-5,5-5h30c2.762,0,5,2.239,5,5S443.762,196,441,196z"/><path d="M481,206h-40c-2.762,0-5-2.239-5-5v-70c0-2.761,2.238-5,5-5h40c2.762,0,5,2.239,5,5v70C486,203.761,483.762,206,481,206z     M446,196h30v-60h-30V196z"/><path d="M101,156H71c-2.761,0-5-2.239-5-5s2.239-5,5-5h30c2.761,0,5,2.239,5,5S103.761,156,101,156z"/><path d="M101,196H71c-2.761,0-5-2.239-5-5s2.239-5,5-5h30c2.761,0,5,2.239,5,5S103.761,196,101,196z"/><path d="M71,206H31c-2.761,0-5-2.239-5-5v-70c0-2.761,2.239-5,5-5h40c2.761,0,5,2.239,5,5v70C76,203.761,73.761,206,71,206z     M36,196h30v-60H36V196z"/><path d="M321,86H191c-2.761,0-5-2.239-5-5s2.239-5,5-5h130c2.762,0,5,2.239,5,5S323.762,86,321,86z"/><path d="M461,476H61c-2.761,0-5-2.238-5-5s2.239-5,5-5h400c2.762,0,5,2.238,5,5S463.762,476,461,476z"/><path d="M201,326c-2.761,0-5-2.238-5-5v-50c0-2.762,2.239-5,5-5s5,2.238,5,5v50C206,323.762,203.761,326,201,326z"/><path d="M231,326c-2.761,0-5-2.238-5-5v-50c0-2.762,2.239-5,5-5s5,2.238,5,5v50C236,323.762,233.761,326,231,326z"/><path d="M261,326c-2.762,0-5-2.238-5-5v-50c0-2.762,2.238-5,5-5s5,2.238,5,5v50C266,323.762,263.762,326,261,326z"/><path d="M291,326c-2.762,0-5-2.238-5-5v-50c0-2.762,2.238-5,5-5s5,2.238,5,5v50C296,323.762,293.762,326,291,326z"/><path d="M321,326c-2.762,0-5-2.238-5-5v-50c0-2.762,2.238-5,5-5s5,2.238,5,5v50C326,323.762,323.762,326,321,326z"/><path d="M371.005,236c-1.616,0-3.201-0.782-4.165-2.227l-18.98-28.471l-68.233-19.495c-2.654-0.759-4.192-3.526-3.434-6.181    c0.76-2.655,3.523-4.191,6.182-3.434l70,20c1.141,0.326,2.128,1.047,2.786,2.034l20,30c1.532,2.297,0.911,5.402-1.387,6.934    C372.921,235.729,371.958,236,371.005,236z"/><path d="M251.004,236c-1.616,0-3.201-0.782-4.165-2.227l-18.98-28.471l-68.233-19.495c-2.655-0.759-4.193-3.526-3.434-6.181    c0.758-2.655,3.528-4.192,6.181-3.434l70,20c1.141,0.326,2.128,1.047,2.787,2.034l20,30c1.532,2.297,0.911,5.402-1.387,6.934    C252.921,235.729,251.958,236,251.004,236z"/></g></g><g id="Layer_1"/></svg>